<svg width="18" height="18" viewBox="0 0 18 18" fill="none" xmlns="http://www.w3.org/2000/svg">
<path d="M13.6667 17.1667C12.7385 17.1667 11.8482 16.798 11.1918 16.1416C10.5355 15.4852 10.1667 14.595 10.1667 13.6667C10.1667 12.7385 10.5355 11.8482 11.1918 11.1918C11.8482 10.5355 12.7385 10.1667 13.6667 10.1667C14.595 10.1667 15.4852 10.5355 16.1416 11.1918C16.798 11.8482 17.1667 12.7385 17.1667 13.6667C17.1667 14.595 16.798 15.4852 16.1416 16.1416C15.4852 16.798 14.595 17.1667 13.6667 17.1667ZM4.33337 17.1667C3.40512 17.1667 2.51488 16.798 1.8585 16.1416C1.20212 15.4852 0.833374 14.595 0.833374 13.6667C0.833374 12.7385 1.20212 11.8482 1.8585 11.1918C2.51488 10.5355 3.40512 10.1667 4.33337 10.1667C5.26163 10.1667 6.15187 10.5355 6.80825 11.1918C7.46463 11.8482 7.83337 12.7385 7.83337 13.6667C7.83337 14.595 7.46463 15.4852 6.80825 16.1416C6.15187 16.798 5.26163 17.1667 4.33337 17.1667ZM13.6667 7.83337C12.7385 7.83337 11.8482 7.46463 11.1918 6.80825C10.5355 6.15187 10.1667 5.26163 10.1667 4.33337C10.1667 3.40512 10.5355 2.51488 11.1918 1.8585C11.8482 1.20212 12.7385 0.833374 13.6667 0.833374C14.595 0.833374 15.4852 1.20212 16.1416 1.8585C16.798 2.51488 17.1667 3.40512 17.1667 4.33337C17.1667 5.26163 16.798 6.15187 16.1416 6.80825C15.4852 7.46463 14.595 7.83337 13.6667 7.83337ZM4.33337 7.83337C3.40512 7.83337 2.51488 7.46463 1.8585 6.80825C1.20212 6.15187 0.833374 5.26163 0.833374 4.33337C0.833374 3.40512 1.20212 2.51488 1.8585 1.8585C2.51488 1.20212 3.40512 0.833374 4.33337 0.833374C5.26163 0.833374 6.15187 1.20212 6.80825 1.8585C7.46463 2.51488 7.83337 3.40512 7.83337 4.33337C7.83337 5.26163 7.46463 6.15187 6.80825 6.80825C6.15187 7.46463 5.26163 7.83337 4.33337 7.83337Z" fill="black"/>
</svg>
