<svg width="21" height="18" viewBox="0 0 21 18" fill="none" xmlns="http://www.w3.org/2000/svg">
<path d="M20.0238 3.14292H6.92858M4.54763 3.14292H0.976196M20.0238 15.0477H6.92858M4.54763 15.0477H0.976196M14.0714 9.0953H0.976196M20.0238 9.0953H16.4524M5.7381 0.761963C6.05384 0.761963 6.35664 0.887388 6.5799 1.11065C6.80315 1.3339 6.92858 1.63671 6.92858 1.95244V4.33339C6.92858 4.64913 6.80315 4.95193 6.5799 5.17518C6.35664 5.39844 6.05384 5.52387 5.7381 5.52387C5.42237 5.52387 5.11957 5.39844 4.89631 5.17518C4.67305 4.95193 4.54763 4.64913 4.54763 4.33339V1.95244C4.54763 1.63671 4.67305 1.3339 4.89631 1.11065C5.11957 0.887388 5.42237 0.761963 5.7381 0.761963V0.761963ZM5.7381 12.6667C6.05384 12.6667 6.35664 12.7921 6.5799 13.0154C6.80315 13.2387 6.92858 13.5415 6.92858 13.8572V16.2382C6.92858 16.5539 6.80315 16.8567 6.5799 17.0799C6.35664 17.3032 6.05384 17.4286 5.7381 17.4286C5.42237 17.4286 5.11957 17.3032 4.89631 17.0799C4.67305 16.8567 4.54763 16.5539 4.54763 16.2382V13.8572C4.54763 13.5415 4.67305 13.2387 4.89631 13.0154C5.11957 12.7921 5.42237 12.6667 5.7381 12.6667ZM15.2619 6.71434C15.5776 6.71434 15.8804 6.83977 16.1037 7.06303C16.327 7.28628 16.4524 7.58909 16.4524 7.90482V10.2858C16.4524 10.6015 16.327 10.9043 16.1037 11.1276C15.8804 11.3508 15.5776 11.4762 15.2619 11.4762C14.9462 11.4762 14.6434 11.3508 14.4201 11.1276C14.1969 10.9043 14.0714 10.6015 14.0714 10.2858V7.90482C14.0714 7.58909 14.1969 7.28628 14.4201 7.06303C14.6434 6.83977 14.9462 6.71434 15.2619 6.71434V6.71434Z" stroke="black" stroke-linecap="round" stroke-linejoin="round"/>
</svg>
